<?xml version="1.0" encoding="UTF-8" standalone="no"?>
<!-- Created with Inkscape (http://www.inkscape.org/) -->

<svg
   xmlns:dc="http://purl.org/dc/elements/1.1/"
   xmlns:cc="http://creativecommons.org/ns#"
   xmlns:rdf="http://www.w3.org/1999/02/22-rdf-syntax-ns#"
   xmlns:svg="http://www.w3.org/2000/svg"
   xmlns="http://www.w3.org/2000/svg"
   xmlns:sodipodi="http://sodipodi.sourceforge.net/DTD/sodipodi-0.dtd"
   xmlns:inkscape="http://www.inkscape.org/namespaces/inkscape"
   width="209.82269mm"
   height="127.68752mm"
   viewBox="0 0 209.82269 127.68752"
   version="1.1"
   id="svg9988"
   inkscape:version="0.92.4 (5da689c313, 2019-01-14)"
   sodipodi:docname="human.svg">
  <defs
     id="defs9982">
    <meshgradient
       inkscape:collect="always"
       id="meshgradient10840"
       gradientUnits="userSpaceOnUse"
       x="214.96725"
       y="132.09238"
       gradientTransform="matrix(1.8234984,4.6183652e-8,-4.6183652e-8,1.8234984,-187.28076,-137.10135)">
      <meshrow
         id="meshrow10842">
        <meshpatch
           id="meshpatch10844">
          <stop
             path="c 0.223396,-0.302111  0.585592,-0.302111  0.808988,0"
             style="stop-color:#ffffff;stop-opacity:1"
             id="stop10846" />
          <stop
             path="c 0.223396,0.302111  0.223396,0.791931  0,1.09404"
             style="stop-color:#ffaaee;stop-opacity:1"
             id="stop10848" />
          <stop
             path="c -0.223396,0.302111  -0.585592,0.302111  -0.808988,0"
             style="stop-color:#ffffff;stop-opacity:1"
             id="stop10850" />
          <stop
             path="c -0.223396,-0.302111  -0.223396,-0.791931  0,-1.09404"
             style="stop-color:#ffaaee;stop-opacity:1"
             id="stop10852" />
        </meshpatch>
      </meshrow>
    </meshgradient>
  </defs>
  <sodipodi:namedview
     id="base"
     pagecolor="#ffffff"
     bordercolor="#666666"
     borderopacity="1.0"
     inkscape:pageopacity="0.0"
     inkscape:pageshadow="2"
     inkscape:zoom="0.7"
     inkscape:cx="426.5526"
     inkscape:cy="511.77799"
     inkscape:document-units="mm"
     inkscape:current-layer="layer1"
     showgrid="false"
     inkscape:window-width="1920"
     inkscape:window-height="1017"
     inkscape:window-x="-8"
     inkscape:window-y="-8"
     inkscape:window-maximized="1" />
  <metadata
     id="metadata9985">
    <rdf:RDF>
      <cc:Work
         rdf:about="">
        <dc:format>image/svg+xml</dc:format>
        <dc:type
           rdf:resource="http://purl.org/dc/dcmitype/StillImage" />
        <dc:title></dc:title>
      </cc:Work>
    </rdf:RDF>
  </metadata>
  <g
     inkscape:label="Layer 1"
     inkscape:groupmode="layer"
     id="layer1"
     transform="translate(-0.79749733,-121.56821)">
    <path
       style="fill:#b36f41;fill-opacity:0.91457286;stroke:none;stroke-width:1.23761117px;stroke-linecap:butt;stroke-linejoin:miter;stroke-opacity:1"
       d="m 118.81875,155.10169 c -8.10794,1.17693 -8.10794,1.47116 -8.10794,1.47116 l -7.17253,10.29812 c -1.19816,4.32311 -2.30461,9.20795 -1.87103,23.5385 2.94309,24.62772 19.28093,10.91402 27.44228,8.23846 9.36716,-8.09085 8.37106,-11.83598 10.91458,-17.06541 -0.55389,-3.44916 -3.05025,-6.44016 -0.62371,-10.5923 -14.07311,-2.15534 -16.99032,-9.16872 -20.58165,-15.88853 z"
       id="path9940"
       inkscape:connector-curvature="0"
       sodipodi:nodetypes="cccccccc" />
    <path
       style="fill:#b36f41;fill-opacity:0.91457286;stroke:none;stroke-width:1.23761117px;stroke-linecap:butt;stroke-linejoin:miter;stroke-opacity:0.91764706"
       d="m 114.7357,202.90066 c 1.55928,20.00773 1.55928,20.59622 1.55928,20.59622 4.37517,9.6879 13.20096,13.70906 27.13033,-3.53077 -2.79414,-11.08861 -8.73098,-20.69454 -2.18279,-36.19045 -4.10784,9.92357 -15.66938,15.11554 -26.50682,19.125 z"
       id="path9944"
       inkscape:connector-curvature="0"
       sodipodi:nodetypes="ccccc" />
    <path
       style="fill:none;stroke:none;stroke-width:1.23761117px;stroke-linecap:butt;stroke-linejoin:miter;stroke-opacity:1"
       d="m 108.21597,224.24607 c 3.57692,-0.75235 8.03553,-0.62742 8.07901,-0.74919 4.65498,5.84715 8.18181,17.53417 24.66454,-1.31041 l 5.30149,2.64809 -5.61325,13.82882 c -7.53164,4.2357 -10.88682,3.20993 -15.10912,-5.82498 -7.81083,5.70487 -18.4802,11.85757 -17.32267,-8.59233 z"
       id="path9946"
       inkscape:connector-curvature="0"
       sodipodi:nodetypes="ccccccc" />
    <path
       style="fill:#aa0000;stroke:none;stroke-width:1.23761117px;stroke-linecap:butt;stroke-linejoin:miter;stroke-opacity:1"
       d="m 108.21597,224.24607 c -50.391112,15.81518 -36.373352,24.51386 -36.373352,24.51386 l 44.800572,0.34462 60.17844,0.15117 c -6.00172,-9.67604 -10.15189,-20.03145 -30.56062,-24.42118 -5.08604,14.24951 -10.21492,25.06385 -20.72237,8.00384 -4.31217,2.42336 -19.79222,15.6604 -17.32267,-8.59233 z"
       id="path9948"
       inkscape:connector-curvature="0"
       sodipodi:nodetypes="ccccccc" />
    <path
       style="fill:#080808;fill-opacity:0.91457286;stroke:#1d1d1d;stroke-width:1.23761117px;stroke-linecap:butt;stroke-linejoin:miter;stroke-opacity:1"
       d="m 103.53828,166.87097 c -5.003326,-11.64287 -1.36049,-20.65905 -1.24735,-20.89045 10.30624,-13.72929 24.83988,-13.49798 41.78714,-5.29613 7.82383,7.63652 16.01474,7.30524 23.07636,31.48275 43.52296,22.06628 56.87215,49.06354 26.12931,76.08661 l -16.46211,0.037 c -7.53526,-7.64517 -3.17291,-15.91693 -30.56062,-23.45622 l -5.30149,-2.64809 c -1.10942,-11.95976 -10.50422,-21.18858 -2.18277,-36.19045 3.83573,-0.68213 -1.78798,-12.60871 0.62365,-15.00581 -9.59012,-1.61696 -16.80796,-6.43157 -20.58165,-15.88852 v 0 c -5.70811,1.14635 -11.12107,5.73463 -15.28047,11.76928 z"
       id="path9942"
       inkscape:connector-curvature="0"
       sodipodi:nodetypes="ccccccccccccc" />
    <ellipse
       style="opacity:1;fill:url(#meshgradient10840);fill-opacity:1;stroke:none;stroke-width:0.06434576;stroke-linejoin:round;stroke-miterlimit:4;stroke-dasharray:none;stroke-opacity:1"
       id="path10556"
       cx="205.44911"
       cy="104.76648"
       rx="1.0431154"
       ry="1.4106668"
       transform="rotate(25.966861)" />
    <path
       style="fill:#c88f67;fill-opacity:0.99607843;stroke:none;stroke-width:0.09640232px;stroke-linecap:butt;stroke-linejoin:miter;stroke-opacity:1"
       d="m 99.496195,174.30078 c -0.848836,9.28935 10.269805,8.4876 12.916045,5.0677 l 1.43057,-3.69791 c 0.34405,-0.72121 -2.43179,-4.28115 -8.7187,-6.58215 -2.00915,-0.74921 -2.96759,-0.93317 -3.8166,-0.21417 -1.599296,1.9354 -1.559127,3.16299 -1.811315,5.42669 z"
       id="path10581"
       inkscape:connector-curvature="0"
       sodipodi:nodetypes="ccccccc" />
    <path
       style="fill:#c88f69;fill-opacity:0.96470588;stroke:none;stroke-width:0.0874615px;stroke-linecap:butt;stroke-linejoin:miter;stroke-opacity:1"
       d="m 130.46323,183.33244 c -5.55729,6.38266 -14.05864,0.33938 -12.55696,-4.06635 0.0948,-1.23355 -0.0968,-2.34938 1.53526,-3.94342 0.25861,-0.67721 4.76865,-2.10421 10.22022,0.5738 1.06111,0.80438 2.52462,1.52703 2.58593,2.53446 -0.26561,2.26228 -0.45876,3.3164 -1.78445,4.90151 z"
       id="path10581-0"
       inkscape:connector-curvature="0"
       sodipodi:nodetypes="cccccc"
       inkscape:transform-center-x="-1.3155069"
       inkscape:transform-center-y="4.882923" />
    <path
       style="fill:#000000;fill-opacity:0.91457286;stroke:none;stroke-width:0.0874615px;stroke-linecap:butt;stroke-linejoin:miter;stroke-opacity:1"
       d="m 98.800164,168.24618 c 7.439576,-0.81451 12.329876,2.92757 17.710076,6.20188 6.54889,-1.49226 12.76797,-1.64747 18.08063,1.87279 -0.99497,2.71508 -2.69986,4.72589 -4.12764,7.01159 l -0.49009,-0.0436 c 0.85154,-2.08779 2.19262,-4.10177 1.43596,-6.43233 -5.53593,-3.4248 -9.06535,-1.92806 -12.57932,-0.4077 -0.57093,1.35861 -1.37859,2.45971 -0.66758,4.10453 l -1.00546,-0.32233 -0.46179,-3.25011 c -0.57231,-0.83941 -1.09465,-0.83085 -1.59332,-0.42128 -0.68154,0.30294 -1.23998,1.4512 -1.83566,2.34384 l -0.85373,0.46501 c 0.54209,-1.62138 1.85109,-3.23292 0.77582,-4.87506 -3.25921,-3.40922 -8.88303,-5.83066 -11.96641,-3.78598 -0.61578,1.73667 -0.91428,4.07864 -0.66605,6.13077 l -1.059405,-0.60739 z"
       id="path10579"
       inkscape:connector-curvature="0"
       sodipodi:nodetypes="cccccccccccccccccc" />
    <rect
       style="opacity:1;fill:#a1c4e3;fill-opacity:0.99607843;stroke:none;stroke-width:0.29547688;stroke-linejoin:round;stroke-miterlimit:4;stroke-dasharray:none;stroke-opacity:1;paint-order:markers fill stroke"
       id="rect10695"
       width="90.184204"
       height="55.841606"
       x="0.79749733"
       y="121.56821"
       rx="5.4865193"
       ry="3.3250747" />
    <path
       style="fill:#a1c4e3;fill-opacity:0.99607843;stroke:none;stroke-width:0.78178251px;stroke-linecap:butt;stroke-linejoin:miter;stroke-opacity:1"
       d="m 80.977868,176.15129 c 3.387603,-0.26948 7.11495,1.72593 10.003842,-1.86864 l 10.68554,16.12682 z"
       id="path10701-6"
       inkscape:connector-curvature="0"
       sodipodi:nodetypes="cccc" />
  </g>
</svg>
